# xmcd
#
# Track frame offsets:
#	150
#	17143
#	36388
#	55905
#	76204
#	90309
#	104656
#	119049
#	135569
#	158097
#	174594
#	191133
#	207563
#	223066
#	240763
#	256330
#	275303
#	292514
#	310247
#	326245
#	339645
#
# Disc length: 4748 seconds
#
# Revision: 1
# Processed by: cddbd v1.5.2PL0 Copyright (c) Steve Scherf et al.
# Submitted via: audiograbber 1.83.01
#
DISCID=33128a15
DTITLE=Blue Rose - A Year In Musik
DYEAR=2008
DGENRE=Country Rock
TTITLE0=Jon Dee Graham - My Lucky Day
TTITLE1=Hank Shizzoe - When A Guy Gets Boobs
TTITLE2=Ryan Bingham - Teh Weary Kind
TTITLE3=Cracker - Mr. Wrong
TTITLE4=Reckless Kelly - Idaho Cowboy
TTITLE5=Jason and The Scorchers - Mona Lee
TTITLE6=Kasey Anderson - Sooner Or Later
TTITLE7=John Hiatt - Go Down Swingin'
TTITLE8=Julian Dawson - All About The Ride
TTITLE9=Austin Collins and The Rainbows - Care
TTITLE10=Susan Cowsill - Avenue Of The Indians
TTITLE11=The Slummers - Bread And Water
TTITLE12=Rich Hopkins and Luminarios - Better Days
TTITLE13=US Rails - Burning Fire
TTITLE14=The Dustin Bentall Outfit - Little Bird In A Big Wind
TTITLE15=Tom Gillam - Long Way Home
TTITLE16=Chris Brecht - Hollywood
TTITLE17=Steve Wynn and Miracle 3 - Colored Lights
TTITLE18=Stacie Collins - The Very Last Time
TTITLE19=Old 97´s - A State Of Texas
TTITLE20=Elliott Murphy - Gone, Gone, Gone
EXTD=
EXTT0=
EXTT1=
EXTT2=
EXTT3=
EXTT4=
EXTT5=
EXTT6=
EXTT7=
EXTT8=
EXTT9=
EXTT10=
EXTT11=
EXTT12=
EXTT13=
EXTT14=
EXTT15=
EXTT16=
EXTT17=
EXTT18=
EXTT19=
EXTT20=
PLAYORDER=
